# xmcd
#
# Track frame offsets:
#	150
#	14873
#	33547
#	55884
#	70262
#	82243
#	103768
#	117747
#	133710
#	137458
#
# Disc length: 2099 seconds
#
# Revision: 1
# Processed by: cddbd v1.5.2PL0 Copyright (c) Steve Scherf et al.
# Submitted via: audiograbber 1.83.01
#
DISCID=9908310a
DTITLE=Homecoming Friends - Bill and Gloria Gaither Present Homecoming The Magazi
DTITLE=ne Favorites Volume 2
DYEAR=2010
DGENRE=Southern Gospel
TTITLE0=Allison Durham Speer, Wesley Pritchard, Sue Dodge and Larry Ford - Wond
TTITLE0=erful Words Of Life
TTITLE1=Avalon - My Jesus, I Love Thee
TTITLE2=Larry Ford, Lillie Knauls - Blessed Assurance
TTITLE3=Jake Hess - Beautiful Isle Of Somewhere
TTITLE4=The Martins - He Leadeth Me
TTITLE5=Terry Blackwood, Tanya Goodman Sykes, Larry Ford and David Phelps - Whe
TTITLE5=n I Survey The Wondrous Cross
TTITLE6=Karen Peck, Larry Ford - He Hideth My Soul
TTITLE7=The Mullins Family - In The Garden
TTITLE8=The Homecoming Friends - Grace Greater Than Our Sin
TTITLE9=Buddy Greene, Jeff Taylor, Robert Robinson and John Wyeth - Come, Thou 
TTITLE9=Fount Of Every Blessing
EXTD=
EXTT0=
EXTT1=
EXTT2=
EXTT3=
EXTT4=
EXTT5=
EXTT6=
EXTT7=
EXTT8=
EXTT9=
PLAYORDER=
